<mxfile host="app.diagrams.net" modified="2024-02-27T00:20:37.406Z" agent="Mozilla/5.0 (Windows NT 10.0; Win64; x64) AppleWebKit/537.36 (KHTML, like Gecko) Chrome/121.0.0.0 Safari/537.36 Edg/121.0.0.0" etag="zE2x22e_eHt11XLVkN7D" version="23.1.7" type="github">
  <diagram name="Page-1" id="SPshpny3IGGuMcFayLH2">
    <mxGraphModel dx="2066" dy="1111" grid="1" gridSize="10" guides="1" tooltips="1" connect="1" arrows="1" fold="1" page="1" pageScale="1" pageWidth="850" pageHeight="1100" math="0" shadow="0">
      <root>
        <mxCell id="0" />
        <mxCell id="1" parent="0" />
        <mxCell id="UXypykGbvyt_Ly42hNoc-1" value="Profile&lt;br&gt;Pic" style="ellipse;whiteSpace=wrap;html=1;aspect=fixed;" parent="1" vertex="1">
          <mxGeometry x="770" y="30" width="50" height="50" as="geometry" />
        </mxCell>
        <mxCell id="UXypykGbvyt_Ly42hNoc-2" value="Search Bar" style="rounded=0;whiteSpace=wrap;html=1;" parent="1" vertex="1">
          <mxGeometry x="210" y="25" width="390" height="25" as="geometry" />
        </mxCell>
        <mxCell id="UXypykGbvyt_Ly42hNoc-3" value="&lt;font style=&quot;font-size: 24px;&quot;&gt;Jungle&lt;/font&gt;" style="rounded=0;whiteSpace=wrap;html=1;" parent="1" vertex="1">
          <mxGeometry x="20" y="30" width="120" height="60" as="geometry" />
        </mxCell>
        <mxCell id="UXypykGbvyt_Ly42hNoc-4" value="Item" style="rounded=0;whiteSpace=wrap;html=1;" parent="1" vertex="1">
          <mxGeometry x="90" y="180" width="610" height="120" as="geometry" />
        </mxCell>
        <mxCell id="UXypykGbvyt_Ly42hNoc-5" value="Item&lt;br&gt;Pic" style="whiteSpace=wrap;html=1;aspect=fixed;" parent="1" vertex="1">
          <mxGeometry x="90" y="180" width="120" height="120" as="geometry" />
        </mxCell>
        <mxCell id="UXypykGbvyt_Ly42hNoc-6" value="Item" style="rounded=0;whiteSpace=wrap;html=1;" parent="1" vertex="1">
          <mxGeometry x="90" y="330" width="610" height="120" as="geometry" />
        </mxCell>
        <mxCell id="UXypykGbvyt_Ly42hNoc-7" value="Item&lt;br&gt;Pic" style="whiteSpace=wrap;html=1;aspect=fixed;" parent="1" vertex="1">
          <mxGeometry x="90" y="330" width="120" height="120" as="geometry" />
        </mxCell>
        <mxCell id="UXypykGbvyt_Ly42hNoc-8" value="Item" style="rounded=0;whiteSpace=wrap;html=1;" parent="1" vertex="1">
          <mxGeometry x="90" y="480" width="610" height="120" as="geometry" />
        </mxCell>
        <mxCell id="UXypykGbvyt_Ly42hNoc-9" value="Item&lt;br&gt;Pic" style="whiteSpace=wrap;html=1;aspect=fixed;" parent="1" vertex="1">
          <mxGeometry x="90" y="480" width="120" height="120" as="geometry" />
        </mxCell>
        <mxCell id="UXypykGbvyt_Ly42hNoc-10" value="Item" style="rounded=0;whiteSpace=wrap;html=1;" parent="1" vertex="1">
          <mxGeometry x="90" y="630" width="610" height="120" as="geometry" />
        </mxCell>
        <mxCell id="UXypykGbvyt_Ly42hNoc-11" value="Item&lt;br&gt;Pic" style="whiteSpace=wrap;html=1;aspect=fixed;" parent="1" vertex="1">
          <mxGeometry x="90" y="630" width="120" height="120" as="geometry" />
        </mxCell>
        <mxCell id="UXypykGbvyt_Ly42hNoc-12" value="Item" style="rounded=0;whiteSpace=wrap;html=1;" parent="1" vertex="1">
          <mxGeometry x="90" y="780" width="610" height="120" as="geometry" />
        </mxCell>
        <mxCell id="UXypykGbvyt_Ly42hNoc-13" value="Item&lt;br&gt;Pic" style="whiteSpace=wrap;html=1;aspect=fixed;" parent="1" vertex="1">
          <mxGeometry x="90" y="780" width="120" height="120" as="geometry" />
        </mxCell>
        <mxCell id="UXypykGbvyt_Ly42hNoc-14" value="Item" style="rounded=0;whiteSpace=wrap;html=1;" parent="1" vertex="1">
          <mxGeometry x="90" y="920" width="610" height="120" as="geometry" />
        </mxCell>
        <mxCell id="UXypykGbvyt_Ly42hNoc-15" value="Item&lt;br&gt;Pic" style="whiteSpace=wrap;html=1;aspect=fixed;" parent="1" vertex="1">
          <mxGeometry x="90" y="920" width="120" height="120" as="geometry" />
        </mxCell>
        <mxCell id="UXypykGbvyt_Ly42hNoc-16" value="Footer" style="rounded=0;whiteSpace=wrap;html=1;" parent="1" vertex="1">
          <mxGeometry y="1050" width="850" height="50" as="geometry" />
        </mxCell>
      </root>
    </mxGraphModel>
  </diagram>
</mxfile>
